<svg xmlns="http://www.w3.org/2000/svg" viewBox="0 0 32 32" width="32" height="32">
  <!-- Background circle -->
  <circle cx="16" cy="16" r="15" fill="#2563eb" stroke="#1e40af" stroke-width="2"/>
  
  <!-- House structure -->
  <!-- Roof -->
  <path d="M8 16 L16 8 L24 16 L22 16 L22 14 L10 14 L10 16 Z" fill="#fbbf24"/>
  
  <!-- House body -->
  <rect x="10" y="14" width="12" height="10" fill="#f3f4f6"/>
  
  <!-- Door -->
  <rect x="14" y="18" width="4" height="6" fill="#7c3aed" rx="0.5"/>
  <circle cx="17" cy="21" r="0.5" fill="#fbbf24"/>
  
  <!-- Windows -->
  <rect x="11.5" y="16" width="2" height="2" fill="#3b82f6" rx="0.2"/>
  <rect x="18.5" y="16" width="2" height="2" fill="#3b82f6" rx="0.2"/>
  
  <!-- Window crosses -->
  <line x1="12.5" y1="16" x2="12.5" y2="18" stroke="#1e40af" stroke-width="0.3"/>
  <line x1="11.5" y1="17" x2="13.5" y2="17" stroke="#1e40af" stroke-width="0.3"/>
  <line x1="19.5" y1="16" x2="19.5" y2="18" stroke="#1e40af" stroke-width="0.3"/>
  <line x1="18.5" y1="17" x2="20.5" y2="17" stroke="#1e40af" stroke-width="0.3"/>
  
  <!-- Chimney -->
  <rect x="20" y="10" width="2" height="4" fill="#ef4444"/>
</svg> 